# xmcd CD database file
#
# Track frame offsets:
#	150
#	16760
#	31638
#	45613
#	73558
#	98478
#	117530
#	147110
#	168810
#	233390
#	247320
#	276113
#
# Disc length: 3904 seconds
#
# Revision: 0
# Processed by: cddbd v1.5.1PL2 Copyright (c) Steve Scherf et al.
# Submitted via: CDex 1.51
#
DISCID=910f3e0c
DTITLE=Pee Wee Bluesgang - Parade of Progress
DYEAR=1900
DGENRE=Blues
TTITLE0=24 Hours
TTITLE1=If You Really Love Me
TTITLE2=Ride on with the King
TTITLE3=Sweet Blue Angel
TTITLE4=Boogie on Down the Street
TTITLE5=Heavy's Blues
TTITLE6=I Don't Need no Name
TTITLE7=Harley Davidson
TTITLE8=Hey Joe
TTITLE9=Summer Sun
TTITLE10=Midnight Rain
TTITLE11=Red Socks and Rock'n Roll
EXTD=
EXTT0=
EXTT1=
EXTT2=
EXTT3=
EXTT4=
EXTT5=
EXTT6=
EXTT7=
EXTT8=
EXTT9=
EXTT10=
EXTT11=
PLAYORDER=
